PathFileType	4	(X/Y/Z)	CPRIT_Patient3_L_AnkleIso_Processed.TRC
DataRate	CameraRate	NumFrames	NumMarkers	Units	OrigDataRate	OrigDataStartFrame	OrigNumFrames
150.205761316872	150.205761316872	5	36	m	150.205761316872	640	       731
Frame#	Time	R.Heel			R.Midfoot.Superior			R.Midfoot.Lateral			R.Toe			L.Heel			L.Midfoot.Superior			L.Midfoot.Lateral			L.Toe			R.Shank.Superior			R.Shank.Inferior			R.Shank.Lateral			R.Shank.Posterior			L.Shank.Superior			L.Shank.Inferior			L.Shank.Posterior			L.Shank.Lateral			R.Patella			L.Patella			R.Thigh.Superior			R.Thigh.Lateral			R.Thigh.Inferior			L.Thigh.Superior			L.Thigh.Inferior			L.Thigh.Lateral			L.Asis			R.Asis			R.Shoulder			L.Shoulder			C7			J.Notch			Sternum			Thoracic			L.Elbow			L.Wrist			R.Elbow			R.Wrist			
		X1	Y1	Z1	X2	Y2	Z2	X3	Y3	Z3	X4	Y4	Z4	X5	Y5	Z5	X6	Y6	Z6	X7	Y7	Z7	X8	Y8	Z8	X9	Y9	Z9	X10	Y10	Z10	X11	Y11	Z11	X12	Y12	Z12	X13	Y13	Z13	X14	Y14	Z14	X15	Y15	Z15	X16	Y16	Z16	X17	Y17	Z17	X18	Y18	Z18	X19	Y19	Z19	X20	Y20	Z20	X21	Y21	Z21	X22	Y22	Z22	X23	Y23	Z23	X24	Y24	Z24	X25	Y25	Z25	X26	Y26	Z26	X27	Y27	Z27	X28	Y28	Z28	X29	Y29	Z29	X30	Y30	Z30	X31	Y31	Z31	X32	Y32	Z32	X33	Y33	Z33	X34	Y34	Z34	X35	Y35	Z35	X36	Y36	Z36	

640	4.254164383562	0.416339356689	0.049520293287	0.096301541859	0.572069949007	0.098725555529	0.167575659280	0.469609359581	0.037929062588	0.175877258232	0.677758714030	0.054745395201	0.217973942410	0.715419723455	0.122009093978	-0.055274434044	0.897615183636	0.127633642568	-0.056616904304	0.795790250754	0.073475645111	-0.086044279759	0.995483643954	0.061601619876	-0.014992379565	0.529160756801	0.359290206082	0.182988369581	0.520318889476	0.239701001772	0.173823532332	0.440706294193	0.293609168006	0.211464090364	0.394555882290	0.359790800266	0.143053197197	0.749650440065	0.423882736465	-0.084762101211	0.784270124274	0.298912931852	-0.080718096014	0.625326032963	0.354651465041	-0.058047397340	0.705060269346	0.319957178299	-0.120307426017	0.561420324697	0.466157724670	0.173964290685	0.732161908579	0.542327735765	-0.076604827288	0.618132496169	0.777537394241	0.196932932551	0.527863910537	0.710133386668	0.244764525568	0.606113415582	0.617368589776	0.169103477583	0.648421253712	0.822645458929	-0.081575673857	0.702704113746	0.682507636805	-0.064344154192	0.579781889916	0.730107609744	-0.133377435076	0.600066065622	0.950573234469	-0.056392472666	0.617171582748	0.937861101216	0.180742841002	0.537060365989	1.460767320299	0.210213648668	0.575698161504	1.434342509731	-0.105726089837	0.521573079479	1.482990628630	0.063361322029	0.624595905590	1.370914930896	0.063723127413	0.666312657145	1.191967491722	0.059885923600	0.415269418401	1.332664599373	0.060002672326	0.529003839475	1.177057247532	-0.293087828071	0.613478652414	0.987857747484	-0.433082547995	0.497573234073	1.183983847328	0.407427479224	0.658447487806	0.988316437510	0.414612022963	
641	4.260821917808	0.416340458003	0.049522100794	0.096301684323	0.572072198517	0.098725769813	0.167575978823	0.469611098148	0.037930116078	0.175877618514	0.677760351477	0.054744506822	0.217975089515	0.715703579276	0.122070194378	-0.054933271191	0.897932312424	0.127663429052	-0.055848916930	0.796150789825	0.073515007042	-0.085515483027	0.995688910794	0.061618916229	-0.013987562747	0.529190008941	0.359289389320	0.182989017577	0.520336234755	0.239700094510	0.173821351789	0.440726390679	0.293617445628	0.211460088901	0.394586484441	0.359800687784	0.143043498034	0.749926337898	0.423910280413	-0.084340234277	0.784573996413	0.298956283945	-0.080192821150	0.625594840236	0.354639847275	-0.057773949689	0.705427338688	0.319975118096	-0.119925391313	0.561460093109	0.466158850822	0.173969830633	0.732390257373	0.542355863926	-0.076234661393	0.618177498873	0.777545090260	0.196945760959	0.527894161921	0.710139842178	0.244759974726	0.606151927172	0.617369965958	0.169102109766	0.648598796396	0.822663393293	-0.081444401252	0.702925598657	0.682531053416	-0.064020868622	0.580048353400	0.730086342326	-0.133255951214	0.600155411393	0.950585422580	-0.056375042106	0.617196855217	0.937873421437	0.180751549620	0.537025513462	1.460765602572	0.210204882113	0.575679607428	1.434347827465	-0.105738821830	0.521539725279	1.482986534583	0.063356101909	0.624586723876	1.370935206331	0.063720567098	0.666348130672	1.192004427946	0.059888003443	0.415262446705	1.332642818811	0.059982901445	0.528987227602	1.177057185635	-0.293096911078	0.613479024175	0.987857993460	-0.433083478075	0.497568687101	1.183977914736	0.407416893613	0.658448983124	0.988310956079	0.414611811880	
642	4.267479452055	0.416341571942	0.049523952536	0.096301913798	0.572074437124	0.098725935250	0.167576326304	0.469612778072	0.037931124075	0.175877924694	0.677761883662	0.054743665702	0.217976194643	0.715988419874	0.122134035745	-0.054596339751	0.898253256610	0.127696158390	-0.055086735304	0.796514269602	0.073554849041	-0.084995674004	0.995900986778	0.061637292544	-0.012991858385	0.529218904733	0.359288874338	0.182989022067	0.520353290481	0.239699228302	0.173818825814	0.440745981727	0.293625920958	0.211455024519	0.394616690530	0.359810515224	0.143032453121	0.750200036375	0.423940807285	-0.083922933726	0.784877236678	0.299003156101	-0.079672100855	0.625862725584	0.354631377857	-0.057502196702	0.705793042123	0.319995318970	-0.119545859983	0.561499447522	0.466160356021	0.173974691781	0.732616309397	0.542387202554	-0.075867122304	0.618221566942	0.777553175328	0.196957056488	0.527923284325	0.710146209098	0.244753869128	0.606192370498	0.617372691542	0.169103354292	0.648773410473	0.822683297901	-0.081314830036	0.703143919546	0.682556944068	-0.063701797051	0.580311856521	0.730066900297	-0.133136146636	0.600242931449	0.950599341062	-0.056358349850	0.617221548479	0.937885900523	0.180759756705	0.536992499677	1.460765219920	0.210196357485	0.575660155092	1.434353646835	-0.105752378905	0.521506890534	1.482983085755	0.063351284088	0.624577671122	1.370955975418	0.063717757991	0.666383603472	1.192042063925	0.059889510678	0.415255591585	1.332622114896	0.059964832758	0.528970365340	1.177056417970	-0.293105247776	0.613479351618	0.987858130581	-0.433084061471	0.497566824928	1.183973345907	0.407406816089	0.658450898727	0.988304641981	0.414613400433	
643	4.274136986301	0.416342699470	0.049525828041	0.096302220974	0.572076659468	0.098726048668	0.167576704462	0.469614382063	0.037932094879	0.175878165600	0.677763308517	0.054742851482	0.217977240798	0.716274784942	0.122198791391	-0.054263067655	0.898578492358	0.127733330698	-0.054331272470	0.796881943686	0.073594276791	-0.084484661555	0.996122241828	0.061660553185	-0.012006502325	0.529247344658	0.359288644499	0.182988321234	0.520369989932	0.239698409324	0.173815966077	0.440764992995	0.293634557523	0.211448874399	0.394646444882	0.359820269199	0.143020063721	0.750471404504	0.423974284519	-0.083510460362	0.785179688544	0.299053435791	-0.079156442683	0.626129604726	0.354626255643	-0.057232197391	0.706156952647	0.320017638621	-0.119168884677	0.561538243979	0.466162227938	0.173978841266	0.732839879922	0.542421475426	-0.075502729689	0.618264511154	0.777561681389	0.196966828972	0.527951152278	0.710152473924	0.244746217864	0.606234257230	0.617376633627	0.169106668568	0.648944857850	0.822704969015	-0.081187226925	0.703359000826	0.682585178704	-0.063387167412	0.580571923331	0.730049092292	-0.133018117638	0.600328554134	0.950614817346	-0.056342486494	0.617245515820	0.937898557659	0.180767464199	0.536961405221	1.460766122008	0.210188077294	0.575639965963	1.434359987189	-0.105766672009	0.521474613200	1.482980293773	0.063346839389	0.624568830065	1.370977188486	0.063714705009	0.666419071550	1.192080328495	0.059890430432	0.415248862563	1.332602533020	0.059948408476	0.528953458370	1.177055006869	-0.293112854139	0.613479649738	0.987858171243	-0.433084326812	0.497567671869	1.183970185258	0.407397299228	0.658453241319	0.988297509992	0.414617040206	
644	4.280794520548	0.416343842300	0.049527705456	0.096302594161	0.572078858684	0.098726109954	0.167577116847	0.469615897057	0.037933037495	0.175878330408	0.677764622703	0.054742051815	0.217978216954	0.716563240361	0.122262114129	-0.053932824943	0.898908386716	0.127776707575	-0.053583764203	0.797255183917	0.073632283016	-0.083982266055	0.996355283403	0.061693284675	-0.011033260054	0.529275225945	0.359288676756	0.182986877950	0.520386266735	0.239697645245	0.173812796087	0.440783352156	0.293643311459	0.211441643827	0.394675687707	0.359829930462	0.143006361677	0.750740276727	0.424010632791	-0.083103056260	0.785481096770	0.299106948417	-0.078646405023	0.626395312524	0.354624595904	-0.056963980904	0.706518535333	0.320041888374	-0.118794565952	0.561576333901	0.466164449923	0.173982276655	0.733060749436	0.542458338873	-0.075142022446	0.618306142406	0.777570628280	0.196975143485	0.527977642070	0.710158627605	0.244737075327	0.606277098695	0.617381653414	0.169111565982	0.649112924445	0.822728150146	-0.081061822932	0.703570730470	0.682615566235	-0.063077269245	0.580828088298	0.730032707041	-0.132901952242	0.600412230582	0.950631625947	-0.056327516591	0.617268612794	0.937911401947	0.180774696478	0.536932268358	1.460768232660	0.210180026798	0.575619220441	1.434366846583	-0.105781586607	0.521442930239	1.482978151047	0.063342721752	0.624560287729	1.370998779581	0.063711412930	0.666454536871	1.192119132188	0.059890769876	0.415242270889	1.332584095929	0.059933527845	0.528936702237	1.177053036299	-0.293119782296	0.613479937664	0.987858130525	-0.433084314960	0.497571200086	1.183968448816	0.407388362542	0.658456017895	0.988289582455	0.414622943128	
